<svg xmlns="http://www.w3.org/2000/svg" viewBox="0 0 160.73 57.35"><defs><style>.cls-1{fill:#ffc62d;}.cls-2{fill:#cf333b;}.cls-3{fill:#009adf;}.cls-4{fill:#595a5b;}</style></defs><title>Asset 2</title><g id="Layer_2" data-name="Layer 2"><g id="Livello_1" data-name="Livello 1"><path class="cls-1" d="M15.1,38.85,9.58,42.73h0L4,46.64a13.38,13.38,0,0,0-3.7,4.49A.16.16,0,0,1,0,51.06v-5.4a9.51,9.51,0,0,1,4.05-7.79L9.58,34h0l5.56-3.9a13.61,13.61,0,0,0,3.71-4.49.16.16,0,0,1,.3.07v5.4A9.51,9.51,0,0,1,15.1,38.85Z"/><path class="cls-2" d="M15.11,12.37,9.59,8.5h0L4,4.59A13.61,13.61,0,0,1,.31.1.16.16,0,0,0,0,.17v5.4a9.51,9.51,0,0,0,4.05,7.79l5.52,3.88h0l5.57,3.91a13.38,13.38,0,0,1,3.7,4.49.16.16,0,0,0,.31-.07v-5.4A9.53,9.53,0,0,0,15.11,12.37Z"/><path class="cls-3" d="M15.11,25.23,9.59,21.36h0L4,17.45A13.61,13.61,0,0,1,.31,13,.16.16,0,0,0,0,13v5.4a9.51,9.51,0,0,0,4.05,7.79L9.58,30.1h0L15.15,34a13.38,13.38,0,0,1,3.7,4.49.16.16,0,0,0,.31-.07V33A9.53,9.53,0,0,0,15.11,25.23Z"/><path class="cls-4" d="M33.83,52.79c0,1.33.66,2.24,1.82,2.24a1.46,1.46,0,0,0,1.66-1.57l-.09-.09H35.57l-.09-.08v-.58l.09-.08h2.48l.09.08v2.9l-.09.08h-.49l-.09-.08-.08-.5h-.08a2.17,2.17,0,0,1-1.66.67c-1.66,0-2.65-1.25-2.65-3a2.68,2.68,0,0,1,2.73-3,2.21,2.21,0,0,1,2.41,1.74l-.09.08h-.66l-.08-.08a1.46,1.46,0,0,0-1.58-1C34.49,50.56,33.83,51.47,33.83,52.79Z"/><path class="cls-4" d="M41.53,52.3h-.41c-.67,0-1.08.24-1.08,1.24v2.07l-.08.08h-.67l-.08-.08v-4l.08-.08h.58l.09.08L40,52h.08a1.34,1.34,0,0,1,1.08-.41h.33l.08.08v.58Z"/><path class="cls-4" d="M45.67,55.69h-.58L45,55.61l-.08-.33h-.08a1.27,1.27,0,0,1-1,.5c-1.16,0-1.57-.83-1.57-1.74V51.63l.08-.08H43l.09.08V54c0,.49.16,1,.82,1s1-.41,1-1.41v-2l.08-.08h.66l.09.08v4Z"/><path class="cls-4" d="M48.82,55.78a1.3,1.3,0,0,1-1.07-.5h-.09v2l-.08.08h-.66l-.09-.08V51.63l.09-.08h.58l.08.08.08.33h.09a1.31,1.31,0,0,1,1.07-.49c1.16,0,1.83.91,1.83,2.15S50,55.78,48.82,55.78Zm-.08-3.57c-.66,0-1.08.42-1.08,1.41S48.08,55,48.74,55s1.08-.5,1.08-1.41S49.4,52.21,48.74,52.21Z"/><path class="cls-4" d="M53.46,55.78a1.33,1.33,0,0,1-1.08-.5H52.3v2l-.08.08h-.66l-.09-.08V51.63l.09-.08h.58l.08.08.08.33h.08a1.34,1.34,0,0,1,1.08-.49c1.16,0,1.82.91,1.82,2.15S54.62,55.78,53.46,55.78Zm-.08-3.57c-.66,0-1.08.42-1.08,1.41S52.72,55,53.38,55s1.08-.5,1.08-1.41S54,52.21,53.38,52.21Z"/><path class="cls-4" d="M57.85,51.47a2.16,2.16,0,1,1-2,2.15A1.92,1.92,0,0,1,57.85,51.47Zm0,3.56c.75,0,1.16-.5,1.16-1.41s-.41-1.41-1.16-1.41-1.16.5-1.16,1.41S57.11,55,57.85,55Z"/><path class="cls-4" d="M65,55.78c-1.41,0-2.32-.67-2.32-1.91l.08-.08h.66l.09.08c0,.83.58,1.16,1.57,1.16.75,0,1.33-.25,1.33-.91s-.5-.91-1.66-1.08-1.91-.66-1.91-1.66c0-.74.58-1.57,2.08-1.57,1.24,0,2.15.5,2.15,1.74l-.08.08H66.3l-.08-.08c0-.66-.33-1-1.41-1-.74,0-1.16.33-1.16.82,0,.67.42.83,1.58,1s2,.58,2,1.74C67.21,55,66.55,55.78,65,55.78Z"/><path class="cls-4" d="M71.27,55.69h-.58l-.08-.08-.08-.33h-.08a1.4,1.4,0,0,1-1.16.5,1.24,1.24,0,0,1-1.41-1.33c0-.91.74-1.33,1.82-1.33a3.27,3.27,0,0,1,.75.09l.08-.09V53c0-.58-.25-.75-.83-.75s-.83.17-.83.5l-.08.08h-.66L68,52.71c0-.58.42-1.24,1.66-1.24s1.66.58,1.66,1.82v2.32ZM70.53,54l-.08-.08a2.41,2.41,0,0,0-.67-.08c-.74,0-1.07.25-1.07.66s.24.58.74.58c.66,0,1.08-.33,1.08-.83Z"/><path class="cls-4" d="M75.83,55.69h-.66l-.08-.08v-2.4c0-.42-.09-1-.83-1s-1.08.42-1.08,1.41v2l-.08.08h-.67l-.08-.08v-4l.08-.08H73l.09.08.08.33h.08a1.31,1.31,0,0,1,1.08-.49c1.16,0,1.57.74,1.57,1.74v2.4Z"/><path class="cls-4" d="M81.13,55.69H79.39l-.08-.08V50l.08-.09h1.74c2.07,0,2.74,1.16,2.74,2.9S83.2,55.69,81.13,55.69Zm-.08-5h-.83l-.08.08v4.14l.08.09h.83c1.57,0,2-.75,2-2.16S82.62,50.64,81.05,50.64Z"/><path class="cls-4" d="M86.52,51.47a2.16,2.16,0,1,1-2,2.15A1.92,1.92,0,0,1,86.52,51.47Zm0,3.56c.74,0,1.16-.5,1.16-1.41s-.42-1.41-1.16-1.41-1.16.5-1.16,1.41S85.77,55,86.52,55Z"/><path class="cls-4" d="M92.82,55.69h-.67l-.08-.08v-2.4c0-.42-.08-1-.83-1s-1.08.42-1.08,1.41v2l-.08.08h-.66l-.09-.08v-4l.09-.08H90l.08.08.08.33h.09a1.31,1.31,0,0,1,1.07-.49c1.16,0,1.58.74,1.58,1.74v2.4Z"/><path class="cls-4" d="M97,55.69h-.58l-.08-.08-.09-.33h-.08a1.38,1.38,0,0,1-1.16.5,1.25,1.25,0,0,1-1.41-1.33c0-.91.75-1.33,1.83-1.33a3.13,3.13,0,0,1,.74.09l.08-.09V53c0-.58-.24-.75-.82-.75s-.83.17-.83.5l-.09.08h-.66l-.08-.08c0-.58.41-1.24,1.66-1.24s1.65.58,1.65,1.82v2.32ZM96.29,54l-.08-.08a2.37,2.37,0,0,0-.66-.08c-.75,0-1.08.25-1.08.66s.25.58.75.58c.66,0,1.07-.33,1.07-.83Z"/><path class="cls-4" d="M100.27,55.69h-.66a1.06,1.06,0,0,1-1.16-1.07V52.38l-.09-.08h-.58l-.08-.09v-.58l.08-.08h.58l.09-.08v-.75l.08-.08h.66l.09.08v.75l.08.08h.91l.08.08v.58l-.08.09h-.91l-.08.08v2.24a.3.3,0,0,0,.33.33h.66l.08.08v.58Z"/><path class="cls-4" d="M102.84,51.47a2.16,2.16,0,1,1-2,2.15A1.92,1.92,0,0,1,102.84,51.47Zm0,3.56c.74,0,1.16-.5,1.16-1.41s-.42-1.41-1.16-1.41-1.16.5-1.16,1.41S102.09,55,102.84,55Z"/><rect class="cls-4" x="33.22" y="44.87" width="72.57" height="0.56"/><path class="cls-4" d="M34.37,23.44H33.16L33,23.28V12.94l.15-.15h1.21l.16.15V23.28Z"/><path class="cls-4" d="M38.68,23.44H37.16L37,23.28V21.76l.15-.15h1.52l.15.15v1.52Z"/><path class="cls-4" d="M47.4,18.72v.15l2.13,3.35v1.06l-.15.16h-.61l-.31-.16L45.73,19l-.31-.15H43l-.16.15v4.26l-.15.16H41.47l-.16-.16V12.94l.16-.15h4.71c2.13,0,3.5.91,3.5,3A2.7,2.7,0,0,1,47.4,18.72Zm-1.22-4.56H43l-.16.15v3l.16.15h3.19c1.37,0,2-.45,2-1.67S47.55,14.16,46.18,14.16Z"/><path class="cls-4" d="M53.23,23.44H51.71l-.16-.16V21.76l.16-.15h1.52l.15.15v1.52Z"/><path class="cls-4" d="M54.64,18.11c0-3.19,1.83-5.47,5-5.47,2.44,0,4,1.37,4.26,3.19l-.15.15H62.55l-.15-.15A2.57,2.57,0,0,0,59.66,14c-2.28,0-3.5,1.67-3.5,4.1s1.22,4.11,3.5,4.11a2.57,2.57,0,0,0,2.74-2l.15-.15h1.22l.15.15a3.94,3.94,0,0,1-4.26,3.35C56.47,23.59,54.64,21.31,54.64,18.11Z"/><path class="cls-4" d="M67,23.44H65.49l-.15-.16V21.76l.15-.15H67l.16.15v1.52Z"/><path class="cls-4" d="M68.43,18.11c0-3.19,1.83-5.47,5-5.47,2.43,0,4,1.37,4.26,3.19l-.15.15H76.34l-.15-.15A2.59,2.59,0,0,0,73.45,14c-2.28,0-3.5,1.67-3.5,4.1s1.22,4.11,3.5,4.11a2.58,2.58,0,0,0,2.74-2l.15-.15h1.22l.15.15a4,4,0,0,1-4.26,3.35C70.26,23.59,68.43,21.31,68.43,18.11Z"/><path class="cls-4" d="M80.8,23.44H79.28l-.15-.16V21.76l.15-.15H80.8l.15.15v1.52Z"/><path class="cls-4" d="M86.78,23.59c-2.59,0-4.26-1.22-4.26-3.5l.15-.15h1.22l.15.15c0,1.52,1.06,2.13,2.89,2.13,1.37,0,2.43-.46,2.43-1.67,0-1.37-.91-1.68-3-2s-3.5-1.22-3.5-3c0-1.37,1.07-2.89,3.81-2.89,2.28,0,4,.91,4,3.19l-.15.15H89.21l-.15-.15c0-1.22-.61-1.82-2.59-1.82-1.37,0-2.12.6-2.12,1.52,0,1.21.75,1.52,2.88,1.82s3.66,1.07,3.66,3.2C90.89,22.22,89.67,23.59,86.78,23.59Z"/><path class="cls-4" d="M94.13,23.44H92.61l-.15-.16V21.76l.15-.15h1.52l.15.15v1.52Z"/><path class="cls-4" d="M104.72,12.64c3.19,0,5,2.28,5,5.47s-1.83,5.48-5,5.48-5-2.28-5-5.48S101.52,12.64,104.72,12.64Zm0,9.58c2.28,0,3.5-1.67,3.5-4.11S107,14,104.72,14s-3.5,1.67-3.5,4.1S102.44,22.22,104.72,22.22Z"/><path class="cls-4" d="M113.9,23.59c-2,0-3.05-.91-3.05-2.59l.15-.15h1.22l.15.15c0,.76.46,1.22,1.53,1.22s1.52-.3,1.52-.91-.46-.92-2-1.22S111,19.18,111,17.81c0-1.07.77-2.13,2.9-2.13,1.67,0,2.89.76,2.89,2.28l-.16.15h-1.21l-.16-.15c0-.46-.3-.91-1.36-.91-.77,0-1.37.15-1.37.76,0,.76.6.91,2.13,1.21s2.28.92,2.28,2.29C116.94,22.52,116,23.59,113.9,23.59Z"/><path class="cls-4" d="M122,23.59a2.4,2.4,0,0,1-2-.91h-.16v3.65l-.15.15h-1.21l-.16-.15V16l.16-.15h1.06l.15.15.15.61H120a2.4,2.4,0,0,1,2-.91c2.13,0,3.35,1.67,3.35,3.95S124.13,23.59,122,23.59Zm-.15-6.54c-1.21,0-2,.76-2,2.58s.77,2.59,2,2.59,2-.91,2-2.59S123.07,17.05,121.85,17.05Z"/><path class="cls-4" d="M126.31,19.63c0-2.13,1.07-3.95,3.5-3.95s3.5,1.82,3.5,3.95v.46l-.15.15h-5l-.16.15a1.82,1.82,0,0,0,2,1.83,1.44,1.44,0,0,0,1.52-.91l.16-.16h1.21l.16.16a2.8,2.8,0,0,1-3,2.28C127.53,23.59,126.31,21.92,126.31,19.63Zm5.33-.76a1.83,1.83,0,0,0-3.66,0l.16.15h3.34Z"/><path class="cls-4" d="M141.11,23.44h-1.06l-.15-.16-.15-.6h-.16a2.38,2.38,0,0,1-2,.91c-2.13,0-3.35-1.67-3.35-4s1.22-3.95,3.35-3.95a2.38,2.38,0,0,1,2,.91h.16V12.94l.15-.15h1.21l.16.15V23.28Zm-3.34-6.39c-1.22,0-2,.91-2,2.58s.76,2.59,2,2.59,2-.76,2-2.59S139,17.05,137.77,17.05Z"/><path class="cls-4" d="M148.92,23.44h-1.06l-.16-.16-.15-.6h-.15a2.55,2.55,0,0,1-2.13.91,2.29,2.29,0,0,1-2.59-2.44c0-1.67,1.37-2.43,3.35-2.43a6.38,6.38,0,0,1,1.37.15l.15-.15v-.3c0-1.07-.45-1.37-1.52-1.37s-1.52.3-1.52.91l-.15.15h-1.22L143,18c0-1.07.76-2.28,3-2.28s3,1.06,3,3.34v4.26Zm-1.37-3.2-.15-.15a4.31,4.31,0,0,0-1.22-.15c-1.37,0-2,.45-2,1.21s.46,1.07,1.37,1.07c1.22,0,2-.61,2-1.52Z"/><path class="cls-4" d="M152.16,23.44H151l-.16-.16V12.94l.16-.15h1.21l.16.15V23.28Z"/><path class="cls-4" d="M153.73,19.63c0-2.13,1.07-3.95,3.5-3.95s3.5,1.82,3.5,3.95v.46l-.15.15h-5l-.16.15a1.82,1.82,0,0,0,2,1.83,1.44,1.44,0,0,0,1.52-.91l.16-.16h1.21l.15.16a2.78,2.78,0,0,1-3,2.28C155,23.59,153.73,21.92,153.73,19.63Zm5.33-.76a1.83,1.83,0,0,0-3.66,0l.16.15h3.34Z"/><path class="cls-4" d="M36.66,38.57c-2.59,0-4.26-1.21-4.26-3.5l.15-.15h1.22l.15.15c0,1.53,1.06,2.13,2.89,2.13,1.37,0,2.43-.45,2.43-1.67,0-1.37-.91-1.67-3-2s-3.5-1.21-3.5-3c0-1.37,1.07-2.89,3.8-2.89,2.29,0,4,.91,4,3.19l-.15.16H39.09l-.15-.16c0-1.21-.61-1.82-2.59-1.82-1.37,0-2.13.61-2.13,1.52,0,1.22.76,1.52,2.89,1.83s3.65,1.06,3.65,3.19C40.76,37.2,39.55,38.57,36.66,38.57Z"/><path class="cls-4" d="M48.11,38.42H47.05l-.15-.15-.16-.61h-.15a2.55,2.55,0,0,1-2.13.91,2.28,2.28,0,0,1-2.58-2.43c0-1.67,1.37-2.43,3.34-2.43a6.38,6.38,0,0,1,1.37.15l.15-.15V33.4c0-1.06-.45-1.37-1.52-1.37s-1.52.31-1.52.91l-.15.16H42.33l-.15-.16c0-1.06.76-2.28,3-2.28s3.05,1.07,3.05,3.35v4.26Zm-1.37-3.19-.15-.16a4.19,4.19,0,0,0-1.21-.15c-1.37,0-2,.46-2,1.22s.45,1.06,1.37,1.06c1.21,0,2-.6,2-1.52Z"/><path class="cls-4" d="M56.38,38.42H55.16L55,38.27V33.86c0-.76-.16-1.83-1.52-1.83s-2,.76-2,2.59v3.65l-.15.15H50.14L50,38.27V31l.15-.16H51.2l.16.16.15.61h.15a2.4,2.4,0,0,1,2-.92c2.13,0,2.89,1.37,2.89,3.2v4.41Z"/><path class="cls-4" d="M68.64,33.71v.15l2.13,3.34v1.07l-.15.15H70l-.3-.15L67,34l-.31-.15H64.23l-.15.15v4.26l-.16.15H62.71l-.15-.15V27.92l.15-.15h4.71c2.13,0,3.5.91,3.5,3A2.71,2.71,0,0,1,68.64,33.71Zm-1.22-4.57H64.23l-.15.15v3.05l.15.15h3.19c1.37,0,2-.46,2-1.68S68.79,29.14,67.42,29.14Z"/><path class="cls-4" d="M78.27,38.42H77.21l-.15-.15-.16-.61h-.15a2.55,2.55,0,0,1-2.13.91A2.29,2.29,0,0,1,72,36.14c0-1.67,1.37-2.43,3.35-2.43a6.38,6.38,0,0,1,1.37.15l.15-.15V33.4c0-1.06-.45-1.37-1.52-1.37s-1.52.31-1.52.91l-.15.16H72.49l-.15-.16c0-1.06.76-2.28,3-2.28s3,1.07,3,3.35v4.26ZM76.9,35.23l-.15-.16a4.31,4.31,0,0,0-1.22-.15c-1.37,0-2,.46-2,1.22S74,37.2,74.93,37.2c1.21,0,2-.6,2-1.52Z"/><path class="cls-4" d="M88.82,32.18H87.3l-.16.16v5.93l-.15.15H85.77l-.15-.15V32.34l-.15-.16H82.58l-.15.16v5.93l-.16.15H81.06l-.15-.15V32.34l-.16-.16H79.69L79.54,32V31l.15-.16h1.06l.16-.15v-.61a1.94,1.94,0,0,1,2.13-2h1.21l.15.15v1.06l-.15.16H83a.55.55,0,0,0-.61.6v.61l.15.15h2.89l.15-.15v-.61a2,2,0,0,1,2.13-2H89l.15.15v1.06l-.15.16H87.75a.56.56,0,0,0-.61.6v.61l.16.15h1.52L89,31V32Z"/><path class="cls-4" d="M95.86,38.42H94.8l-.15-.15-.16-.61h-.15a2.55,2.55,0,0,1-2.13.91,2.29,2.29,0,0,1-2.59-2.43c0-1.67,1.37-2.43,3.35-2.43a6.38,6.38,0,0,1,1.37.15l.15-.15V33.4C94.49,32.34,94,32,93,32s-1.52.31-1.52.91l-.15.16H90.08l-.15-.16c0-1.06.76-2.28,3-2.28s3,1.07,3,3.35v4.26Zm-1.37-3.19-.15-.16a4.31,4.31,0,0,0-1.22-.15c-1.37,0-2,.46-2,1.22s.45,1.06,1.37,1.06c1.21,0,2-.6,2-1.52Z"/><path class="cls-4" d="M97.28,34.62c0-2.13,1.06-4,3.5-4s3.5,1.83,3.5,4v.45l-.16.16h-5l-.15.15a1.81,1.81,0,0,0,2,1.82,1.44,1.44,0,0,0,1.52-.91l.15-.15h1.22l.15.15a2.77,2.77,0,0,1-3,2.28C98.5,38.57,97.28,36.9,97.28,34.62Zm5.32-.76a1.83,1.83,0,1,0-3.65,0l.15.15h3.35Z"/><path class="cls-4" d="M107.06,38.42h-1.21l-.16-.15V27.92l.16-.15h1.21l.15.15V38.27Z"/><path class="cls-4" d="M108.63,34.62c0-2.13,1.06-4,3.5-4s3.5,1.83,3.5,4v.45l-.15.16h-5l-.16.15a1.82,1.82,0,0,0,2,1.82,1.44,1.44,0,0,0,1.52-.91l.15-.15h1.22l.15.15a2.77,2.77,0,0,1-3,2.28C109.85,38.57,108.63,36.9,108.63,34.62Zm5.32-.76a1.83,1.83,0,1,0-3.65,0l.16.15h3.34Z"/></g></g></svg>