<?xml version="1.0" encoding="utf-16"?>
<svg id="Layer_1" xmlns="http://www.w3.org/2000/svg" width="200.27" height="38.75" viewBox="0 0 200.27 38.75">
  <defs>
    <style>.cls-1{fill:#fff;}</style>
  </defs>
  <polygon class="cls-1" points="3.83 30.24 0.43 30.24 0 29.81 0 0.85 0.43 0.43 3.83 0.43 4.26 0.85 4.26 29.81 3.83 30.24" />
  <path class="cls-1" d="M9.3,15.33C9.3,6.39,14.41,0,23.35,0c6.81,0,11.08,3.83,11.93,8.94l-.43.43H31.44L31,8.94c-.85-3-3.41-5.11-7.67-5.11-6.39,0-9.8,4.68-9.8,11.5s3.41,11.5,9.8,11.5c4.69,0,6.81-2.56,7.67-5.54l.43-.42h3.41l.43.42c-.85,5.11-4.69,9.37-11.93,9.37-8.94,0-14.06-6.39-14.06-15.33" transform="translate(0 0)" />
  <path class="cls-1" d="M53.87,4.26H44.93l-.43.42V13.2l.43.43h8.94c3.83,0,5.54-1.28,5.54-4.69s-1.7-4.68-5.54-4.68M57.27,17v.42l6,9.37v3l-.43.42H61.1l-.85-.42L52.58,17.88l-.85-.42H44.92l-.43.42V29.81l-.43.42h-3.4l-.43-.42V.85l.43-.42h13.2c6,0,9.79,2.55,9.79,8.52,0,4.69-2.56,7.24-6.39,8.09" transform="translate(0 0)" />
  <polygon class="cls-1" points="3.06 34.92 3.06 38.33 2.63 38.75 0.43 38.75 0 38.33 0 34.92 0.43 34.49 2.63 34.49 3.06 34.92" />
  <polygon class="cls-1" points="10.46 34.92 10.46 38.33 10.03 38.75 4.76 38.75 4.34 38.33 4.34 34.92 4.76 34.49 10.03 34.49 10.46 34.92" />
  <polygon class="cls-1" points="20.91 34.92 20.91 38.33 20.49 38.75 12.16 38.75 11.73 38.33 11.73 34.92 12.16 34.49 20.49 34.49 20.91 34.92" />
  <polygon class="cls-1" points="37.48 34.92 37.48 38.33 37.06 38.75 22.61 38.75 22.19 38.33 22.19 34.92 22.61 34.49 37.06 34.49 37.48 34.92" />
  <polygon class="cls-1" points="63.24 34.92 63.24 38.33 62.81 38.75 39.19 38.75 38.76 38.33 38.76 34.92 39.19 34.49 62.81 34.49 63.24 34.92" />
  <polygon class="cls-1" points="80.33 2.01 76.65 2.01 76.48 2.18 76.48 12.53 76.31 12.7 74.9 12.7 74.72 12.53 74.72 2.18 74.55 2.01 70.87 2.01 70.69 1.83 70.69 0.6 70.87 0.43 80.33 0.43 80.51 0.6 80.51 1.83 80.33 2.01" />
  <path class="cls-1" d="M89.28,12.71h-1.4l-.18-.18V7.44c0-1.05-.35-2.11-1.76-2.11s-2.28.7-2.28,2.81v4.39l-.18.18h-1.4l-.17-.18V.6l.17-.17h1.4l.18.17V4.8h.18a2.77,2.77,0,0,1,2.28-1c2.63,0,3.33,1.75,3.33,3.69v5.09l-.18.18Z" transform="translate(0 0)" />
  <path class="cls-1" d="M97.17,7.44a2.11,2.11,0,0,0-4.22,0l.18.18H97ZM91,8.31c0-2.45,1.23-4.56,4-4.56s4,2.11,4,4.56v.53L98.93,9H93.14L93,9.19a2.1,2.1,0,0,0,2.28,2.11A1.67,1.67,0,0,0,97,10.25l.18-.18h1.4l.18.18c-.18,1.4-1.4,2.63-3.51,2.63C92.43,12.88,91,11,91,8.31" transform="translate(0 0)" />
  <polygon class="cls-1" points="107.16 12.71 105.77 12.71 105.6 12.53 105.6 0.6 105.77 0.43 107.16 0.43 107.33 0.6 107.33 12.53 107.16 12.71" />
  <path class="cls-1" d="M117.16,12.71h-1.4l-.17-.18V7.44c0-.88-.18-2.11-1.76-2.11s-2.28.88-2.28,3v4.21l-.17.18H110l-.18-.18V4.1l.18-.17h1.23l.18.17.17.7h.18a2.77,2.77,0,0,1,2.28-1c2.46,0,3.34,1.58,3.34,3.69v5.09l-.18.18Z" transform="translate(0 0)" />
  <path class="cls-1" d="M122.25,12.88c-2.28,0-3.51-1.05-3.51-3l.18-.17h1.4l.17.17c0,.88.53,1.41,1.76,1.41S124,11,124,10.26c0-.88-.53-1-2.28-1.4s-2.8-1-2.8-2.64c0-1.23.88-2.45,3.33-2.45,1.93,0,3.33.88,3.33,2.63l-.17.18H124l-.17-.18c0-.52-.35-1.06-1.58-1.06-.88,0-1.58.18-1.58.88,0,.88.7,1,2.46,1.41s2.63,1,2.63,2.63c0,1.4-1.05,2.63-3.51,2.63" transform="translate(0 0)" />
  <path class="cls-1" d="M132.06,12.71h-1.4a2.26,2.26,0,0,1-2.46-2.28V5.69L128,5.51h-1.21l-.18-.18V4.1l.18-.17H128l.18-.17V2.19l.17-.17h1.41l.18.17V3.76l.18.17h1.93l.18.17V5.33l-.18.18h-1.93l-.18.18v4.74a.64.64,0,0,0,.7.7h1.4l.18.18v1.23l-.18.18Z" transform="translate(0 0)" />
  <path class="cls-1" d="M135.57,12.7h-1.4l-.18-.18V4.1l.18-.17h1.4l.18.17v8.42Zm0-10.17h-1.4L134,2.35V1l.18-.18h1.4l.18.18v1.4Z" transform="translate(0 0)" />
  <path class="cls-1" d="M142.59,12.71h-1.4a2.26,2.26,0,0,1-2.46-2.28V5.69l-.18-.18h-1.23l-.18-.18V4.1l.18-.17h1.23l.18-.17V2.19l.18-.17h1.4l.18.17V3.76l.18.17h1.93l.18.17V5.33l-.18.18h-1.93l-.18.18v4.74a.64.64,0,0,0,.7.7h1.4l.18.18v1.23l-.18.18Z" transform="translate(0 0)" />
  <path class="cls-1" d="M151.52,12.71h-1.23l-.17-.18-.18-.7h-.17a2.6,2.6,0,0,1-2.09,1.05c-2.46,0-3.33-1.76-3.33-3.68V4.11l.17-.17h1.4l.18.17V9.2c0,1.05.35,2.1,1.75,2.1,1.23,0,2.09-.88,2.09-3V4.1l.18-.17h1.4l.17.17v8.43l-.17.18Z" transform="translate(0 0)" />
  <path class="cls-1" d="M158.54,12.71h-1.41a2.25,2.25,0,0,1-2.45-2.28V5.69l-.18-.18h-1.23l-.17-.18V4.1l.17-.17h1.23l.18-.17V2.19l.18-.17h1.4l.17.17V3.76l.18.17h1.93l.17.17V5.33l-.17.18h-1.93l-.18.18v4.74a.64.64,0,0,0,.7.7h1.41l.17.18v1.23l-.17.18Z" transform="translate(0 0)" />
  <path class="cls-1" d="M165.74,7.44a2.11,2.11,0,0,0-4.22,0l.17.18h3.86l.18-.18Zm-6.14.87c0-2.45,1.23-4.56,4-4.56s4,2.11,4,4.56v.53l-.18.17H161.7l-.17.18a2.09,2.09,0,0,0,2.28,2.11,1.68,1.68,0,0,0,1.76-1.05l.18-.18h1.4l.18.18c-.18,1.4-1.4,2.63-3.51,2.63-2.81,0-4.21-1.93-4.21-4.57" transform="translate(0 0)" />
  <path class="cls-1" d="M177.47,11.3c1.58,0,2.46-1.05,2.46-3s-.88-3-2.46-3S175,6.39,175,8.31s.88,3,2.46,3m0-7.55c2.63,0,4.21,1.75,4.21,4.56s-1.58,4.57-4.21,4.57-4.21-1.76-4.21-4.57,1.58-4.56,4.21-4.56" transform="translate(0 0)" />
  <path class="cls-1" d="M187.83,5.51h-1.75l-.17.18v6.84l-.18.18h-1.4l-.18-.18V5.69L184,5.51h-1.23l-.18-.18V4.1l.18-.17H184l.17-.17V3.07A2.25,2.25,0,0,1,186.61.79H188l.17.18V2.2l-.17.18h-1.4a.64.64,0,0,0-.7.7v.69l.17.17h1.75l.18.17V5.34l-.18.18Z" transform="translate(0 0)" />
  <path class="cls-1" d="M71,24.1c0-3.68,2.11-6.32,5.79-6.32,2.8,0,4.56,1.58,4.91,3.69l-.18.17h-1.4L80,21.47a3,3,0,0,0-3.15-2.1c-2.63,0-4,1.93-4,4.73s1.41,4.74,4,4.74A3,3,0,0,0,80,26.56l.17-.17h1.4l.18.17c-.35,2.11-1.93,3.86-4.91,3.86-3.68,0-5.79-2.63-5.79-6.32" transform="translate(0 0)" />
  <path class="cls-1" d="M88.58,26.55l-.17-.17A4.76,4.76,0,0,0,87,26.2c-1.58,0-2.28.53-2.28,1.4s.53,1.23,1.58,1.23c1.4,0,2.28-.7,2.28-1.75v-.53Zm1.57,3.68H88.93l-.18-.17-.18-.7H88.4a3,3,0,0,1-2.46,1.05c-1.93,0-3-1.05-3-2.81,0-1.93,1.58-2.81,3.86-2.81A7.44,7.44,0,0,1,88.4,25l.17-.17v-.35c0-1.23-.53-1.58-1.76-1.58s-1.75.35-1.75,1.05l-.18.17h-1.4l-.17-.17c0-1.23.88-2.63,3.51-2.63s3.5,1.22,3.5,3.86v4.91l-.17.17Z" transform="translate(0 0)" />
  <path class="cls-1" d="M99.63,30.24H98.22l-.17-.17V25c0-.88-.18-2.1-1.76-2.1s-2.28.87-2.28,3v4.21l-.18.17h-1.4l-.18-.17V21.65l.18-.17h1.23l.18.17.18.7h.17a2.77,2.77,0,0,1,2.28-1.05c2.46,0,3.33,1.58,3.33,3.68v5.09Z" transform="translate(0 0)" />
  <path class="cls-1" d="M105.42,28.83a1.87,1.87,0,0,0,2.09-1.4l.18-.17h1.4l.17.17c-.17,1.58-1.4,3-3.84,3-2.63,0-4.21-1.76-4.21-4.56s1.58-4.56,4.21-4.56c2.44,0,3.67,1.4,3.84,3l-.17.17h-1.4l-.18-.17a1.87,1.87,0,0,0-2.09-1.4c-1.58,0-2.46,1.05-2.46,3s.88,3,2.46,3" transform="translate(0 0)" />
  <path class="cls-1" d="M116.46,25a2.11,2.11,0,0,0-4.22,0l.17.18h3.86l.17-.18Zm-6.14.88c0-2.46,1.23-4.56,4-4.56s4,2.11,4,4.56v.53l-.18.17h-5.79l-.17.18a2.08,2.08,0,0,0,2.28,2.1,1.68,1.68,0,0,0,1.76-1l.17-.17h1.4l.18.17c-.18,1.41-1.4,2.64-3.51,2.64-2.81,0-4.21-1.93-4.21-4.56" transform="translate(0 0)" />
  <path class="cls-1" d="M124.88,23.05H124c-1.4,0-2.28.53-2.28,2.63v4.38l-.18.17h-1.4l-.18-.17V21.64l.18-.17h1.23l.17.17.18.7h.18a2.79,2.79,0,0,1,2.28-.88h.7l.18.17v1.23l-.18.17Z" transform="translate(0 0)" />
  <path class="cls-1" d="M137,19.54h-3.69l-.18.17v3.51l.18.18H137c1.58,0,2.28-.53,2.28-1.93s-.7-1.93-2.28-1.93m1.4,5.26V25l2.46,3.86v1.23l-.18.17H140l-.35-.17-3.16-4.91-.35-.18h-2.81l-.18.18v4.91l-.18.17h-1.4l-.18-.17V18.13l.18-.17H137c2.45,0,4,1.05,4,3.51a3.12,3.12,0,0,1-2.63,3.33" transform="translate(0 0)" />
  <path class="cls-1" d="M148.2,25a2.1,2.1,0,1,0-4.2,0l.17.18H148l.17-.18Zm-6.14.88c0-2.46,1.23-4.56,4-4.56s4,2.11,4,4.56v.53l-.18.17h-5.78l-.17.18a2.08,2.08,0,0,0,2.28,2.1,1.66,1.66,0,0,0,1.75-1l.17-.17h1.41l.16.17c-.16,1.41-1.39,2.64-3.49,2.64-2.81,0-4.21-1.93-4.21-4.56" transform="translate(0 0)" />
  <path class="cls-1" d="M154.68,30.42c-2.29,0-3.51-1.06-3.51-3l.17-.18h1.4l.17.18c0,.88.53,1.4,1.76,1.4s1.75-.35,1.75-1.05c0-.88-.53-1.05-2.28-1.4s-2.81-1.06-2.81-2.64c0-1.23.88-2.45,3.34-2.45,1.93,0,3.33.88,3.33,2.63l-.18.18h-1.4l-.17-.18c0-.52-.35-1.05-1.58-1.05-.88,0-1.58.18-1.58.88,0,.88.7,1,2.45,1.41s2.63,1,2.63,2.63c0,1.41-1,2.64-3.51,2.64" transform="translate(0 0)" />
  <path class="cls-1" d="M165.38,25a2.11,2.11,0,0,0-4.21,0l.18.18h3.86l.17-.18Zm-6.14.88c0-2.46,1.23-4.56,4-4.56s4,2.11,4,4.56v.53l-.18.17h-5.79l-.18.18a2.09,2.09,0,0,0,2.28,2.1,1.68,1.68,0,0,0,1.76-1l.17-.17h1.4l.18.17c-.18,1.41-1.4,2.64-3.51,2.64-2.81,0-4.21-1.93-4.21-4.56" transform="translate(0 0)" />
  <path class="cls-1" d="M174,26.55l-.18-.17a4.76,4.76,0,0,0-1.4-.18c-1.56,0-2.26.53-2.26,1.4s.53,1.23,1.57,1.23c1.4,0,2.28-.7,2.28-1.75v-.53Zm1.58,3.68h-1.23l-.18-.17-.18-.7h-.18a2.91,2.91,0,0,1-2.44,1.05c-1.93,0-3-1.05-3-2.81,0-1.93,1.58-2.81,3.85-2.81a7.44,7.44,0,0,1,1.58.17l.18-.17v-.35c0-1.23-.53-1.58-1.75-1.58s-1.74.35-1.74,1.05l-.18.17h-1.4l-.18-.17c0-1.23.88-2.63,3.49-2.63s3.51,1.22,3.51,3.86v4.91l-.18.17Z" transform="translate(0 0)" />
  <path class="cls-1" d="M182.56,23.05h-.88c-1.4,0-2.28.53-2.28,2.63v4.38l-.17.17h-1.41l-.18-.17V21.64l.18-.17h1.23l.18.17.17.7h.18a2.78,2.78,0,0,1,2.28-.88h.7l.18.17v1.23l-.18.17Z" transform="translate(0 0)" />
  <path class="cls-1" d="M187.3,28.83c1.4,0,1.93-.7,2.1-1.4l.18-.17H191l.18.17c-.18,1.58-1.41,3-3.86,3-2.63,0-4.21-1.76-4.21-4.56s1.58-4.56,4.21-4.56c2.46,0,3.68,1.4,3.86,3l-.18.17h-1.4l-.18-.17a1.88,1.88,0,0,0-2.1-1.4c-1.58,0-2.46,1.05-2.46,3s.88,3,2.46,3" transform="translate(0 0)" />
  <path class="cls-1" d="M200.1,30.24h-1.41l-.18-.17V25c0-1.05-.35-2.1-1.75-2.1s-2.28.7-2.28,2.81v4.38l-.18.17h-1.39l-.18-.17V18.14l.18-.17h1.39l.18.17v4.21h.18a2.77,2.77,0,0,1,2.28-1.05c2.63,0,3.33,1.75,3.33,3.68v5.09Z" transform="translate(0 0)" />
</svg>