<?xml version="1.0" encoding="UTF-8"?>
<svg xmlns="http://www.w3.org/2000/svg" xmlns:xlink="http://www.w3.org/1999/xlink" width="496.15pt" height="179.03pt" viewBox="0 0 496.15 179.03" version="1.1">
<defs>
<clipPath id="clip1">
  <path d="M 0 132 L 496.148438 132 L 496.148438 179.03125 L 0 179.03125 Z M 0 132 "/>
</clipPath>
</defs>
<g id="surface1">
<path style=" stroke:none;fill-rule:evenodd;fill:rgb(13.699341%,12.199402%,12.5%);fill-opacity:1;" d="M 136.210938 -0.00390625 L 159.6875 41.246094 L 159.6875 1.433594 L 218.234375 1.433594 C 229.015625 1.433594 242.65625 9.894531 247.25 25.105469 L 247.25 1.433594 L 325.0625 1.433594 L 325.0625 9.976563 L 256.042969 9.976563 L 256.042969 55.960938 L 325.0625 55.960938 L 325.0625 64.507813 L 256.042969 64.507813 L 256.042969 110.238281 L 327.097656 110.238281 L 377.972656 0.0546875 L 412.105469 67.222656 L 401.929688 67.222656 L 377.996094 18.503906 L 332.730469 119.03125 L 247.550781 119.03125 L 214.636719 57.144531 C 256.195313 49.183594 238.722656 9.976563 218.484375 9.976563 L 167.285156 9.976563 L 167.285156 68.886719 L 136.816406 16.296875 L 99.339844 106.359375 L 89.648438 106.359375 Z M 227.5625 60.808594 L 247.25 99.410156 L 247.25 38.257813 C 246.78125 49.6875 239.878906 56.039063 227.5625 60.808594 "/>
<path style=" stroke:none;fill-rule:evenodd;fill:rgb(13.699341%,12.199402%,12.5%);fill-opacity:1;" d="M 124.765625 64.667969 L 155.449219 64.667969 L 155.449219 56.125 L 124.765625 56.125 Z M 124.765625 64.667969 "/>
<path style=" stroke:none;fill-rule:evenodd;fill:rgb(13.699341%,12.199402%,12.5%);fill-opacity:1;" d="M 365.949219 64.667969 L 394.683594 64.667969 L 394.683594 56.125 L 365.949219 56.125 Z M 365.949219 64.667969 "/>
<g clip-path="url(#clip1)" clip-rule="nonzero">
<path style=" stroke:none;fill-rule:nonzero;fill:rgb(4.699707%,55.299377%,26.699829%);fill-opacity:1;" d="M 496.144531 155.914063 C 434.453125 170.128906 346.148438 179.03125 248.074219 179.03125 C 149.996094 179.03125 61.6875 170.128906 0 155.914063 C 61.6875 141.695313 149.996094 132.792969 248.074219 132.792969 C 346.148438 132.792969 434.453125 141.695313 496.144531 155.914063 "/>
</g>
<path style=" stroke:none;fill-rule:evenodd;fill:rgb(100%,100%,100%);fill-opacity:1;" d="M 119.269531 159.269531 L 124.183594 158.792969 C 124.476563 160.441406 125.074219 161.652344 125.972656 162.425781 C 126.882813 163.199219 128.105469 163.585938 129.640625 163.585938 C 131.265625 163.585938 132.488281 163.246094 133.308594 162.5625 C 134.136719 161.871094 134.554688 161.0625 134.554688 160.140625 C 134.554688 159.550781 134.375 159.050781 134.023438 158.640625 C 133.683594 158.21875 133.078125 157.855469 132.214844 157.546875 C 131.621094 157.34375 130.277344 156.980469 128.171875 156.457031 C 125.46875 155.785156 123.570313 154.960938 122.476563 153.984375 C 120.941406 152.605469 120.171875 150.929688 120.171875 148.953125 C 120.171875 147.675781 120.53125 146.488281 121.246094 145.386719 C 121.976563 144.273438 123.015625 143.425781 124.371094 142.84375 C 125.734375 142.265625 127.378906 141.972656 129.296875 141.972656 C 132.4375 141.972656 134.796875 142.664063 136.378906 144.039063 C 137.96875 145.414063 138.804688 147.25 138.886719 149.546875 L 133.835938 149.769531 C 133.621094 148.484375 133.15625 147.5625 132.4375 147.007813 C 131.730469 146.4375 130.667969 146.152344 129.246094 146.152344 C 127.78125 146.152344 126.632813 146.457031 125.804688 147.058594 C 125.269531 147.445313 125 147.960938 125 148.609375 C 125 149.203125 125.25 149.707031 125.75 150.128906 C 126.386719 150.664063 127.933594 151.21875 130.390625 151.800781 C 132.847656 152.378906 134.660156 152.980469 135.832031 153.605469 C 137.015625 154.222656 137.9375 155.070313 138.597656 156.148438 C 139.265625 157.21875 139.601563 158.542969 139.601563 160.125 C 139.601563 161.554688 139.203125 162.898438 138.40625 164.148438 C 137.613281 165.398438 136.484375 166.332031 135.03125 166.945313 C 133.574219 167.546875 131.761719 167.847656 129.589844 167.851563 C 126.429688 167.851563 124 167.125 122.304688 165.667969 C 120.613281 164.199219 119.597656 162.066406 119.269531 159.269531 "/>
<path style=" stroke:none;fill-rule:evenodd;fill:rgb(100%,100%,100%);fill-opacity:1;" d="M 164.851563 154.648438 L 160.125 155.5 C 159.964844 154.558594 159.601563 153.847656 159.035156 153.371094 C 158.476563 152.890625 157.746094 152.652344 156.851563 152.652344 C 155.65625 152.652344 154.699219 153.066406 153.984375 153.898438 C 153.28125 154.714844 152.925781 156.09375 152.925781 158.023438 C 152.925781 160.175781 153.285156 161.691406 154 162.582031 C 154.730469 163.464844 155.703125 163.910156 156.917969 163.910156 C 157.828125 163.910156 158.574219 163.652344 159.152344 163.140625 C 159.734375 162.621094 160.140625 161.726563 160.382813 160.464844 L 165.089844 161.265625 C 164.597656 163.425781 163.660156 165.058594 162.273438 166.164063 C 160.886719 167.265625 159.027344 167.816406 156.695313 167.816406 C 154.046875 167.816406 151.933594 166.980469 150.351563 165.308594 C 148.78125 163.636719 147.996094 161.324219 147.996094 158.367188 C 147.996094 155.375 148.785156 153.050781 150.367188 151.390625 C 151.949219 149.71875 154.085938 148.882813 156.78125 148.882813 C 158.988281 148.882813 160.738281 149.359375 162.035156 150.316406 C 163.34375 151.257813 164.28125 152.703125 164.851563 154.648438 "/>
<path style=" stroke:none;fill-rule:evenodd;fill:rgb(100%,100%,100%);fill-opacity:1;" d="M 173.722656 149.292969 L 178.515625 149.292969 L 178.515625 167.40625 L 173.722656 167.40625 Z M 173.722656 142.402344 L 178.515625 142.402344 L 178.515625 146.835938 L 173.722656 146.835938 Z M 173.722656 142.402344 "/>
<path style=" stroke:none;fill-rule:evenodd;fill:rgb(100%,100%,100%);fill-opacity:1;" d="M 199.429688 156.796875 C 199.398438 155.410156 199.039063 154.359375 198.355469 153.640625 C 197.675781 152.914063 196.84375 152.550781 195.867188 152.550781 C 194.820313 152.550781 193.953125 152.929688 193.273438 153.691406 C 192.589844 154.453125 192.253906 155.488281 192.265625 156.796875 Z M 199.160156 161.640625 L 203.933594 162.445313 C 203.320313 164.195313 202.347656 165.53125 201.019531 166.453125 C 199.699219 167.363281 198.042969 167.816406 196.054688 167.816406 C 192.902344 167.816406 190.574219 166.789063 189.058594 164.730469 C 187.867188 163.078125 187.269531 161 187.269531 158.484375 C 187.269531 155.484375 188.054688 153.136719 189.621094 151.441406 C 191.191406 149.734375 193.175781 148.882813 195.578125 148.882813 C 198.269531 148.882813 200.398438 149.777344 201.953125 151.5625 C 203.511719 153.335938 204.257813 156.058594 204.191406 159.730469 L 192.183594 159.730469 C 192.214844 161.152344 192.601563 162.261719 193.34375 163.058594 C 194.078125 163.84375 195 164.234375 196.105469 164.234375 C 196.855469 164.234375 197.488281 164.03125 197.996094 163.621094 C 198.511719 163.210938 198.898438 162.550781 199.160156 161.640625 "/>
<path style=" stroke:none;fill-rule:evenodd;fill:rgb(100%,100%,100%);fill-opacity:1;" d="M 229.8125 167.40625 L 225.019531 167.40625 L 225.019531 158.160156 C 225.019531 156.207031 224.914063 154.945313 224.714844 154.375 C 224.507813 153.796875 224.171875 153.347656 223.707031 153.027344 C 223.25 152.710938 222.699219 152.550781 222.050781 152.550781 C 221.21875 152.550781 220.476563 152.777344 219.816406 153.230469 C 219.15625 153.6875 218.703125 154.289063 218.453125 155.039063 C 218.214844 155.789063 218.09375 157.179688 218.09375 159.203125 L 218.09375 167.40625 L 213.300781 167.40625 L 213.300781 149.292969 L 217.753906 149.292969 L 217.753906 151.953125 C 219.335938 149.90625 221.324219 148.882813 223.722656 148.882813 C 224.78125 148.882813 225.746094 149.074219 226.621094 149.464844 C 227.496094 149.839844 228.15625 150.320313 228.601563 150.914063 C 229.058594 151.503906 229.371094 152.175781 229.539063 152.925781 C 229.722656 153.675781 229.8125 154.75 229.8125 156.148438 "/>
<path style=" stroke:none;fill-rule:evenodd;fill:rgb(100%,100%,100%);fill-opacity:1;" d="M 255.710938 154.648438 L 250.984375 155.5 C 250.824219 154.558594 250.460938 153.847656 249.894531 153.371094 C 249.335938 152.890625 248.605469 152.652344 247.710938 152.652344 C 246.515625 152.652344 245.558594 153.066406 244.84375 153.898438 C 244.136719 154.714844 243.785156 156.09375 243.785156 158.023438 C 243.785156 160.175781 244.144531 161.691406 244.859375 162.582031 C 245.589844 163.464844 246.5625 163.910156 247.777344 163.910156 C 248.6875 163.910156 249.433594 163.652344 250.011719 163.140625 C 250.59375 162.621094 251 161.726563 251.238281 160.464844 L 255.945313 161.265625 C 255.457031 163.425781 254.519531 165.058594 253.132813 166.164063 C 251.746094 167.265625 249.886719 167.816406 247.554688 167.816406 C 244.90625 167.816406 242.789063 166.980469 241.210938 165.308594 C 239.640625 163.636719 238.855469 161.324219 238.855469 158.367188 C 238.855469 155.375 239.644531 153.050781 241.226563 151.390625 C 242.808594 149.71875 244.945313 148.882813 247.640625 148.882813 C 249.847656 148.882813 251.597656 149.359375 252.894531 150.316406 C 254.199219 151.257813 255.140625 152.703125 255.710938 154.648438 "/>
<path style=" stroke:none;fill-rule:evenodd;fill:rgb(100%,100%,100%);fill-opacity:1;" d="M 275.34375 156.796875 C 275.3125 155.410156 274.953125 154.359375 274.269531 153.640625 C 273.589844 152.914063 272.757813 152.550781 271.78125 152.550781 C 270.734375 152.550781 269.867188 152.929688 269.1875 153.691406 C 268.503906 154.453125 268.167969 155.488281 268.179688 156.796875 Z M 275.074219 161.640625 L 279.847656 162.445313 C 279.234375 164.195313 278.261719 165.53125 276.929688 166.453125 C 275.613281 167.363281 273.957031 167.816406 271.96875 167.816406 C 268.816406 167.816406 266.488281 166.789063 264.972656 164.730469 C 263.78125 163.078125 263.183594 161 263.183594 158.484375 C 263.183594 155.484375 263.96875 153.136719 265.535156 151.441406 C 267.105469 149.734375 269.089844 148.882813 271.492188 148.882813 C 274.183594 148.882813 276.3125 149.777344 277.867188 151.5625 C 279.425781 153.335938 280.171875 156.058594 280.105469 159.730469 L 268.097656 159.730469 C 268.128906 161.152344 268.515625 162.261719 269.257813 163.058594 C 269.992188 163.84375 270.914063 164.234375 272.019531 164.234375 C 272.769531 164.234375 273.402344 164.03125 273.910156 163.621094 C 274.425781 163.210938 274.8125 162.550781 275.074219 161.640625 "/>
<path style=" stroke:none;fill-rule:evenodd;fill:rgb(100%,100%,100%);fill-opacity:1;" d="M 295.03125 146.632813 L 295.03125 153.726563 L 297.792969 153.726563 C 299.78125 153.726563 301.113281 153.597656 301.785156 153.335938 C 302.457031 153.074219 302.976563 152.664063 303.355469 152.105469 C 303.742188 151.550781 303.933594 150.902344 303.933594 150.160156 C 303.933594 149.253906 303.667969 148.5 303.132813 147.910156 C 302.597656 147.320313 301.921875 146.949219 301.101563 146.800781 C 300.5 146.6875 299.289063 146.632813 297.46875 146.632813 Z M 289.980469 167.40625 L 289.980469 142.402344 L 298.085938 142.402344 C 301.152344 142.402344 303.15625 142.527344 304.089844 142.777344 C 305.519531 143.152344 306.71875 143.96875 307.6875 145.234375 C 308.652344 146.484375 309.136719 148.105469 309.136719 150.09375 C 309.136719 151.628906 308.859375 152.917969 308.300781 153.964844 C 307.742188 155.011719 307.03125 155.835938 306.167969 156.441406 C 305.316406 157.03125 304.445313 157.421875 303.558594 157.617188 C 302.351563 157.855469 300.609375 157.972656 298.320313 157.972656 L 295.03125 157.972656 L 295.03125 167.40625 "/>
<path style=" stroke:none;fill-rule:evenodd;fill:rgb(100%,100%,100%);fill-opacity:1;" d="M 327.085938 158.707031 C 326.472656 158.914063 325.5 159.15625 324.167969 159.441406 C 322.839844 159.726563 321.96875 160.003906 321.558594 160.277344 C 320.933594 160.722656 320.621094 161.28125 320.621094 161.964844 C 320.621094 162.636719 320.871094 163.214844 321.371094 163.707031 C 321.871094 164.195313 322.507813 164.4375 323.28125 164.4375 C 324.148438 164.4375 324.972656 164.15625 325.757813 163.585938 C 326.335938 163.152344 326.714844 162.625 326.898438 162 C 327.023438 161.589844 327.085938 160.8125 327.085938 159.664063 Z M 320.671875 154.820313 L 316.320313 154.035156 C 316.8125 152.28125 317.652344 150.988281 318.847656 150.144531 C 320.039063 149.304688 321.816406 148.882813 324.167969 148.882813 C 326.308594 148.882813 327.898438 149.140625 328.945313 149.648438 C 329.992188 150.152344 330.726563 150.792969 331.144531 151.578125 C 331.578125 152.351563 331.792969 153.777344 331.792969 155.859375 L 331.742188 161.453125 C 331.742188 163.046875 331.816406 164.222656 331.964844 164.984375 C 332.121094 165.734375 332.414063 166.542969 332.835938 167.40625 L 328.09375 167.40625 C 327.96875 167.089844 327.8125 166.617188 327.632813 165.992188 C 327.550781 165.707031 327.496094 165.519531 327.460938 165.429688 C 326.644531 166.226563 325.765625 166.820313 324.835938 167.21875 C 323.902344 167.617188 322.90625 167.816406 321.851563 167.816406 C 319.984375 167.816406 318.511719 167.3125 317.433594 166.296875 C 316.363281 165.285156 315.828125 164.007813 315.828125 162.460938 C 315.828125 161.4375 316.070313 160.527344 316.5625 159.730469 C 317.050781 158.925781 317.730469 158.308594 318.609375 157.890625 C 319.496094 157.457031 320.769531 157.082031 322.429688 156.761719 C 324.667969 156.34375 326.222656 155.949219 327.085938 155.585938 L 327.085938 155.109375 C 327.085938 154.1875 326.859375 153.535156 326.402344 153.148438 C 325.949219 152.75 325.089844 152.550781 323.828125 152.550781 C 322.976563 152.550781 322.308594 152.722656 321.832031 153.0625 C 321.355469 153.390625 320.96875 153.976563 320.671875 154.820313 "/>
<path style=" stroke:none;fill-rule:evenodd;fill:rgb(100%,100%,100%);fill-opacity:1;" d="M 345.648438 167.40625 L 340.855469 167.40625 L 340.855469 149.292969 L 345.308594 149.292969 L 345.308594 151.867188 C 346.066406 150.652344 346.753906 149.847656 347.355469 149.464844 C 347.96875 149.074219 348.664063 148.882813 349.4375 148.882813 C 350.527344 148.882813 351.578125 149.183594 352.589844 149.785156 L 351.105469 153.964844 C 350.296875 153.441406 349.546875 153.179688 348.855469 153.179688 C 348.183594 153.179688 347.617188 153.367188 347.148438 153.742188 C 346.683594 154.109375 346.3125 154.773438 346.039063 155.738281 C 345.777344 156.707031 345.648438 158.730469 345.648438 161.8125 "/>
<path style=" stroke:none;fill-rule:evenodd;fill:rgb(100%,100%,100%);fill-opacity:1;" d="M 359.722656 167.40625 L 359.722656 142.402344 L 364.515625 142.402344 L 364.515625 155.671875 L 370.128906 149.292969 L 376.03125 149.292969 L 369.839844 155.910156 L 376.472656 167.40625 L 371.304688 167.40625 L 366.75 159.269531 L 364.515625 161.605469 L 364.515625 167.40625 "/>
</g>
</svg>
